<?xml version="1.0" encoding="UTF-8" standalone="no"?>
<svg
   viewBox="0 0 499.99999 200"
   version="1.1"
   id="svg40"
   sodipodi:docname="drawing-v00.svg"
   width="500"
   height="200"
   inkscape:version="1.1 (1:1.1+202105261517+ce6663b3b7)"
   xmlns:inkscape="http://www.inkscape.org/namespaces/inkscape"
   xmlns:sodipodi="http://sodipodi.sourceforge.net/DTD/sodipodi-0.dtd"
   xmlns="http://www.w3.org/2000/svg"
   xmlns:svg="http://www.w3.org/2000/svg">
  <sodipodi:namedview
     id="namedview42"
     pagecolor="#ffffff"
     bordercolor="#666666"
     borderopacity="1.0"
     inkscape:pageshadow="2"
     inkscape:pageopacity="0.0"
     inkscape:pagecheckerboard="0"
     showgrid="false"
     inkscape:document-units="mm"
     height="200px"
     inkscape:zoom="1.2689069"
     inkscape:cx="476.3943"
     inkscape:cy="149.34114"
     inkscape:window-width="1920"
     inkscape:window-height="1016"
     inkscape:window-x="0"
     inkscape:window-y="27"
     inkscape:window-maximized="1"
     inkscape:current-layer="svg40" />
  <defs
     id="defs4">
    <style
       id="style2">.cls-1{fill:#f5b6bc;}.cls-2{fill:#f5b1b6;}.cls-3{fill:#bd5298;}.cls-4{fill:#72c6d4;}</style>
  </defs>
  <g
     id="Layer_2"
     data-name="Layer 2"
     transform="matrix(2.5779556,0,0,2.5779556,4.551854,0.78940647)">
    <g
       id="Layer_1-2"
       data-name="Layer 1">
      <path
         class="cls-1"
         d="m 101.8,27.54 a 0.76,0.76 0 0 1 -0.21,0 l -0.72,-0.15 a 1,1 0 0 1 0.42,-1.95 l 0.72,0.16 a 1.0054974,1.0054974 0 0 1 -0.21,2"
         id="path6" />
      <path
         class="cls-1"
         d="m 109.56,38.08 a 1,1 0 0 1 -0.82,-0.44 c -0.07,-0.09 -1.94,-2.52 -7.77,-0.5 -5.83,2.02 -9.13,-0.14 -11.73,-1.85 -0.4,-0.27 -0.79,-0.53 -1.18,-0.76 a 18,18 0 0 0 -3.58,-1.67 1,1 0 0 1 0.63,-1.86 19.81,19.81 0 0 1 4,1.86 c 0.41,0.24 0.82,0.52 1.25,0.8 2.47,1.64 5,3.34 10,1.63 7.36,-2.56 10,1.11 10.06,1.27 a 1,1 0 0 1 -0.26,1.38 1,1 0 0 1 -0.56,0.17"
         id="path8" />
      <path
         class="cls-1"
         d="m 93.74,66.86 c -0.32,0 -0.64,0 -0.95,0 a 7.9,7.9 0 0 1 -6,-3.25 c -3.12,-4.4 -2.45,-9.95 -1.3,-15.36 a 31.06,31.06 0 0 1 -5.87,-1.83 1,1 0 0 1 0.76,-1.84 27.88,27.88 0 0 0 6.45,1.88 1,1 0 0 1 0.68,0.42 1,1 0 0 1 0.15,0.78 c -1.18,5.29 -2.09,10.78 0.76,14.8 A 5.84,5.84 0 0 0 93,64.84 c 3.6,0.31 8.19,-1.63 11.42,-4.84 4.17,-4.14 5.06,-9.2 6,-14.55 a 42.34,42.34 0 0 1 2.37,-9.25 53.61,53.61 0 0 1 3.73,-7.08 c 2.07,-3.46 3.43,-5.74 2.69,-8.66 a 7.46,7.46 0 0 0 -4.28,-4.6 15.94,15.94 0 0 0 -12.45,-0.24 c -6.36,3 -3.94,9.65 -3.83,9.94 a 1,1 0 0 1 -0.12,0.93 7,7 0 0 0 -1.14,5 6.07,6.07 0 0 0 3.34,3.83 1.0034441,1.0034441 0 1 1 -1,1.74 8,8 0 0 1 -4.34,-5.13 8.83,8.83 0 0 1 1.18,-6.16 c -1,-3.16 -1.07,-9.13 5,-12 a 17.8,17.8 0 0 1 14.14,0.25 9.17,9.17 0 0 1 5.39,5.98 c 1,3.72 -0.76,6.57 -2.91,10.17 a 52.46,52.46 0 0 0 -3.61,6.83 40.1,40.1 0 0 0 -2.24,8.83 c -1,5.42 -1.94,11 -6.56,15.62 -3.4,3.37 -8,5.44 -12,5.44"
         id="path10" />
      <path
         class="cls-1"
         d="m 82.8,53.14 a 7.75,7.75 0 0 1 -2.8,-0.53 1,1 0 0 1 -0.59,-1.28 1,1 0 0 1 1.29,-0.59 4.63,4.63 0 0 0 4.42,-0.3 1,1 0 1 1 1.08,1.67 6.19,6.19 0 0 1 -3.44,1"
         id="path12" />
      <path
         class="cls-2"
         d="m 111.68,31.18 a 1,1 0 0 1 -0.29,-1.94 c 0.23,-0.08 0.76,-0.34 0.87,-0.68 0.11,-0.34 -0.18,-0.83 -0.37,-1.09 a 1,1 0 0 1 1.62,-1.16 3.12,3.12 0 0 1 0.63,2.9 3.42,3.42 0 0 1 -2.14,1.93 0.9,0.9 0 0 1 -0.28,0"
         id="path14" />
      <path
         class="cls-1"
         d="m 95.24,54.46 h -0.06 a 1,1 0 0 1 -0.93,-1.05 c 0.09,-1.55 0.26,-2.93 0.4,-4.14 0.34,-2.75 0.56,-4.56 -0.37,-5.66 C 93,42.1 89.22,41.32 81.21,40.92 a 1,1 0 0 1 -0.75,-0.41 1,1 0 0 1 -0.16,-0.83 17.58,17.58 0 0 1 1.06,-2.91 1,1 0 1 1 1.8,0.85 c -0.23,0.49 -0.42,1 -0.57,1.38 8,0.47 11.56,1.37 13.21,3.33 1.49,1.76 1.21,4 0.83,7.18 -0.14,1.18 -0.31,2.52 -0.4,4 a 1,1 0 0 1 -1,0.93"
         id="path16" />
      <path
         class="cls-3"
         d="m 69.94,48.6 c 0.22,9.95 5.58,18.78 15.94,26.24 a 1.590283,1.590283 0 0 0 1.86,-2.58 C 78.24,65.41 73.32,57.43 73.12,48.53 A 33.92,33.92 0 0 1 76.91,33.12 L 74,31.84 A 36.81,36.81 0 0 0 69.94,48.6"
         id="path18" />
      <path
         class="cls-3"
         d="M 103.64,0.61 A 1.6,1.6 0 0 0 101.4,0.34 c -6.34,5 -18.2,15.37 -25.41,27.8 l 2.9,1.29 C 85.82,17.64 97.26,7.67 103.37,2.84 a 1.59,1.59 0 0 0 0.27,-2.23"
         id="path20" />
      <path
         class="cls-4"
         d="m 17.6,40.38 a 23.33,23.33 0 0 1 -6.31,0.79 22.4,22.4 0 0 1 -4.81,-0.5 C 1,39.29 0,33.6 0,27 0,14.42 3.59,12.41 11.29,12.41 c 2.34,0 4.64,0.21 6,0.33 1,0.09 1.46,0.17 1.46,0.8 V 15 c 0,1 0,1.38 -0.84,1.38 -1.63,0 -1.58,-0.33 -5.85,-0.33 a 14.39,14.39 0 0 0 -4.81,0.66 c -2.63,1.26 -3,4.94 -3,10.37 0,5.43 0.51,9.45 4.48,10.25 a 20.06,20.06 0 0 0 3.34,0.2 11.43,11.43 0 0 0 2.68,-0.37 V 27.63 H 9.87 c -1,0 -1,-0.46 -1,-1.34 V 25.7 c 0,-0.87 0,-1.34 1,-1.34 h 7.94 c 0.92,0 1,0.38 1,1.09 v 13.34 c 0,1 -0.2,1.25 -1.25,1.59"
         id="path22" />
      <path
         class="cls-4"
         d="M 27.77,40.63 H 26 c -1.09,0 -1.3,-0.17 -1.3,-1.21 V 13.79 c 0,-1 0.46,-1.09 1.3,-1.09 h 1.76 c 0.91,0 1,0.38 1,1.09 v 25.63 c 0,1 -0.29,1.21 -1,1.21"
         id="path24" />
      <path
         class="cls-4"
         d="m 48.06,16.3 c -3.81,-0.05 -6.73,-0.09 -9.24,-0.17 v 8.36 l 8.44,-0.13 c 1,0 1.05,0.47 1.05,1.34 v 0.59 c 0,0.88 0,1.34 -1.05,1.34 L 38.82,27.5 v 11.92 c 0,1 -0.25,1.21 -1,1.21 H 36 c -1.05,0 -1.3,-0.17 -1.3,-1.21 V 13.79 c 0,-1 0.46,-1.09 1.3,-1.09 h 12 c 0.67,0 1,0.13 1,1.09 V 15 c 0,0.88 0,1.34 -1,1.34"
         id="path26" />
      <path
         class="cls-4"
         d="m 71.38,16.3 c -2.67,0 -4.89,-0.05 -6.85,-0.09 v 23.21 c 0,1 -0.3,1.21 -1.05,1.21 h -1.75 c -1.09,0 -1.3,-0.17 -1.3,-1.21 V 16.21 c -2,0 -4.18,0.09 -6.86,0.09 -1,0 -1,-0.46 -1,-1.34 v -1.17 c 0,-1 0.37,-1.09 1,-1.09 h 17.81 c 0.67,0 1.05,0.13 1.05,1.09 V 15 c 0,0.88 0,1.34 -1.05,1.34"
         id="path28" />
      <path
         class="cls-4"
         d="m 134,63.74 c -1.38,2.8 -5.1,2.92 -7.94,2.92 -2.34,0 -4.64,-0.21 -6,-0.33 -1.09,-0.08 -1.46,-0.17 -1.46,-0.8 v -1.46 c 0,-1 0,-1.38 0.83,-1.38 2.3,0 1.76,0.34 7.28,0.34 3,0 4,-0.3 4,-3.56 0,-3.09 0,-3.76 -1.92,-4.55 -1.71,-0.76 -3.47,-1.51 -5.18,-2.3 -4.1,-1.88 -4.77,-2.55 -4.77,-7.44 0,-2 0,-4.18 1.59,-5.61 1.59,-1.43 4.1,-1.5 7.57,-1.5 1.88,0 2.88,0.08 4.68,0.21 1,0.08 1.46,0.16 1.46,0.79 v 1.46 c 0,1 0,1.38 -0.83,1.38 -1.64,0 -1.22,-0.2 -4.52,-0.2 -0.75,0 -2.22,-0.05 -3,-0.05 -3,0 -3,1.26 -3,3.93 0,2 0.13,2.43 1.88,3.26 1.13,0.51 2.3,1 3.43,1.51 5.35,2.38 6.56,3 6.56,7.61 0,1.59 0,4.35 -0.71,5.77"
         id="path30" />
      <path
         class="cls-4"
         d="M 153.79,66.29 H 152 c -0.67,0 -0.92,-0.51 -0.92,-1.13 V 64.49 A 9.73,9.73 0 0 1 144.72,67 c -4.64,0 -5.69,-2.89 -5.69,-5.4 V 48.06 c 0,-1 0.21,-1.21 0.92,-1.21 h 1.51 c 1.29,0 1.42,0.08 1.42,1.21 V 59.3 c 0,2.14 0.08,3.43 0.42,3.85 0.34,0.42 0.79,0.63 1.88,0.63 2.26,0 3.72,-1.09 5.85,-2.8 V 48.06 c 0,-1 0.21,-1.21 0.92,-1.21 h 1.51 c 1.29,0 1.42,0.08 1.42,1.21 v 17.1 c 0,1 -0.21,1.13 -1.09,1.13"
         id="path32" />
      <path
         class="cls-4"
         d="m 170.11,50.15 a 9.56,9.56 0 0 0 -6.36,1.8 v 13.12 c 0,1 -0.21,1.22 -0.92,1.22 h -1.59 c -1.29,0 -1.46,-0.09 -1.46,-1.22 V 48 c 0,-1 0.21,-1.13 1.09,-1.13 h 2 c 0.67,0 0.92,0.5 0.92,1.13 v 0.87 a 10.92,10.92 0 0 1 6.06,-2.25 c 0.72,0 1.09,0.29 1.09,0.79 v 1.46 c 0,1 -0.17,1.3 -0.79,1.3"
         id="path34" />
      <path
         class="cls-4"
         d="m 185.06,49.52 c -1.33,-0.08 -2.3,-0.12 -4,-0.12 -2.17,0 -3.09,0.41 -3.68,1.71 a 14.88,14.88 0 0 0 -0.88,5.56 29,29 0 0 0 0.25,3.51 c 0.34,2.68 1.13,3.52 3.31,3.52 a 16.38,16.38 0 0 0 5,-1 z m 3.1,22.54 c -1.21,1.88 -3.64,2.88 -7,2.88 A 33.79,33.79 0 0 1 173.6,74.1 c -0.59,-0.16 -0.71,-0.33 -0.71,-1 a 10.21,10.21 0 0 1 0.12,-1.55 c 0.13,-0.66 0.17,-1 0.5,-1 a 33.87,33.87 0 0 0 8,1.13 c 2.46,0 3.34,-0.59 3.51,-2.26 a 31.07,31.07 0 0 0 0.12,-3.34 25.2,25.2 0 0 1 -5.56,0.71 c -4.93,0 -6.94,-3 -6.94,-9.87 0,-3.8 0.71,-6.6 2.09,-8.23 1.59,-1.93 3.22,-2.47 7.65,-2.47 1.84,0 3.35,0 5.61,0.17 0.92,0.08 1,0.25 1,1.21 v 20.78 c 0,2.05 -0.13,2.71 -0.75,3.68"
         id="path36" />
    </g>
  </g>
</svg>
