<?xml version="1.0"?><svg version="1.1" id="圖層_1" xmlns="http://www.w3.org/2000/svg" x="0" y="0" viewBox="0 0 100 100" xml:space="preserve"><path d="M50 7.5c-13.1 0-23.6 10.6-23.6 23.6 0 .9.1 1.8.2 2.7h0c.1.7.2 1.3.4 2l.7 2.4c.2.8.5 1.6.8 2.3L49 91.9c.3.9 1.6.9 1.9 0l20.7-51.2c.3-.8.6-1.5.8-2.3l.7-2.4c.2-.7.3-1.3.4-2h0c.1-.9.2-1.8.2-2.7C73.6 18.1 63.1 7.5 50 7.5zm0 33.7c-5.6 0-10.1-4.5-10.1-10.1s4.5-10 10.1-10 10.1 4.5 10.1 10.1-4.5 10-10.1 10z" fill="#f47e60" stroke-linecap="round" stroke="#333" stroke-width="3.5" stroke-miterlimit="10"/><path d="M50 7.5c-1.7 0-3.4.2-5 .5 10.7 2.3 18.6 11.8 18.6 23.1 0 .9-.1 1.8-.2 2.7h0c-.1.7-.2 1.3-.4 2l-.7 2.4c-.2.8-.5 1.6-.8 2.3L45 81.8l4 10c.3.9 1.6.9 1.9 0l20.7-51.2c.3-.8.6-1.5.8-2.3l.7-2.4c.2-.7.3-1.3.4-2h0c.1-.9.2-1.8.2-2.7C73.6 18.1 63.1 7.5 50 7.5z" opacity=".2" stroke-linecap="round" stroke-linejoin="round" stroke="#000" stroke-width="3.5" stroke-miterlimit="10"/><path d="M39.1 17.5c1.9-1.6 4.2-2.7 6.7-3.3" fill="none" stroke-linecap="round" stroke="#fff" stroke-width="3.5" stroke-miterlimit="10"/><path d="M34.6 22.9c.2-.4.5-.9.8-1.3" fill="none" stroke-linecap="round" stroke="#fff" stroke-width="3.5" stroke-miterlimit="10"/><metadata xmlns:d="https://loading.io/stock/">
<d:name>location</d:name>
<d:tags>location,place,locality,marker,landmark,waypoint,gps</d:tags>
<d:license>by</d:license>
<d:slug>fwt0mr</d:slug>
</metadata></svg>