<?xml version="1.0" encoding="UTF-8"?>
<svg xmlns="http://www.w3.org/2000/svg" viewBox="0 0 188.91 75.14"><defs><style>.cls-1{fill:#f5b6bc;}.cls-2{fill:#f5b1b6;}.cls-3{fill:#bd5298;}.cls-4{fill:#72c6d4;}</style></defs><g id="Layer_2" data-name="Layer 2"><g id="Layer_1-2" data-name="Layer 1"><path class="cls-1" d="M101.8,27.54a.76.76,0,0,1-.21,0l-.72-.15a1,1,0,0,1,.42-1.95l.72.16a1,1,0,0,1-.21,2"/><path class="cls-1" d="M109.56,38.08a1,1,0,0,1-.82-.44c-.07-.09-1.94-2.52-7.77-.5S91.84,37,89.24,35.29c-.4-.27-.79-.53-1.18-.76a18,18,0,0,0-3.58-1.67A1,1,0,0,1,85.11,31a19.81,19.81,0,0,1,4,1.86c.41.24.82.52,1.25.8,2.47,1.64,5,3.34,10,1.63,7.36-2.56,10,1.11,10.06,1.27a1,1,0,0,1-.26,1.38,1,1,0,0,1-.56.17"/><path class="cls-1" d="M93.74,66.86c-.32,0-.64,0-.95,0a7.9,7.9,0,0,1-6-3.25c-3.12-4.4-2.45-9.95-1.3-15.36a31.06,31.06,0,0,1-5.87-1.83,1,1,0,0,1,.76-1.84,27.88,27.88,0,0,0,6.45,1.88,1,1,0,0,1,.68.42,1,1,0,0,1,.15.78c-1.18,5.29-2.09,10.78.76,14.8A5.84,5.84,0,0,0,93,64.84c3.6.31,8.19-1.63,11.42-4.84,4.17-4.14,5.06-9.2,6-14.55a42.34,42.34,0,0,1,2.37-9.25,53.61,53.61,0,0,1,3.73-7.08c2.07-3.46,3.43-5.74,2.69-8.66a7.46,7.46,0,0,0-4.28-4.6,15.94,15.94,0,0,0-12.45-.24c-6.36,3-3.94,9.65-3.83,9.94a1,1,0,0,1-.12.93,7,7,0,0,0-1.14,5,6.07,6.07,0,0,0,3.34,3.83,1,1,0,1,1-1,1.74,8,8,0,0,1-4.34-5.13,8.83,8.83,0,0,1,1.18-6.16c-1-3.16-1.07-9.13,5-12a17.8,17.8,0,0,1,14.14.25A9.17,9.17,0,0,1,121.1,20c1,3.72-.76,6.57-2.91,10.17A52.46,52.46,0,0,0,114.58,37a40.1,40.1,0,0,0-2.24,8.83c-1,5.42-1.94,11-6.56,15.62-3.4,3.37-8,5.44-12,5.44"/><path class="cls-1" d="M82.8,53.14A7.75,7.75,0,0,1,80,52.61a1,1,0,0,1-.59-1.28,1,1,0,0,1,1.29-.59,4.63,4.63,0,0,0,4.42-.3,1,1,0,1,1,1.08,1.67,6.19,6.19,0,0,1-3.44,1"/><path class="cls-2" d="M111.68,31.18a1,1,0,0,1-.29-1.94c.23-.08.76-.34.87-.68s-.18-.83-.37-1.09a1,1,0,0,1,1.62-1.16,3.12,3.12,0,0,1,.63,2.9A3.42,3.42,0,0,1,112,31.14a.9.9,0,0,1-.28,0"/><path class="cls-1" d="M95.24,54.46h-.06a1,1,0,0,1-.93-1.05c.09-1.55.26-2.93.4-4.14.34-2.75.56-4.56-.37-5.66C93,42.1,89.22,41.32,81.21,40.92a1,1,0,0,1-.75-.41,1,1,0,0,1-.16-.83,17.58,17.58,0,0,1,1.06-2.91,1,1,0,1,1,1.8.85c-.23.49-.42,1-.57,1.38,8,.47,11.56,1.37,13.21,3.33,1.49,1.76,1.21,4,.83,7.18-.14,1.18-.31,2.52-.4,4a1,1,0,0,1-1,.93"/><path class="cls-3" d="M69.94,48.6c.22,9.95,5.58,18.78,15.94,26.24a1.59,1.59,0,0,0,1.86-2.58c-9.5-6.85-14.42-14.83-14.62-23.73a33.92,33.92,0,0,1,3.79-15.41L74,31.84A36.81,36.81,0,0,0,69.94,48.6"/><path class="cls-3" d="M103.64.61A1.6,1.6,0,0,0,101.4.34c-6.34,5-18.2,15.37-25.41,27.8l2.9,1.29C85.82,17.64,97.26,7.67,103.37,2.84a1.59,1.59,0,0,0,.27-2.23"/><path class="cls-4" d="M17.6,40.38a23.33,23.33,0,0,1-6.31.79,22.4,22.4,0,0,1-4.81-.5C1,39.29,0,33.6,0,27,0,14.42,3.59,12.41,11.29,12.41c2.34,0,4.64.21,6,.33,1,.09,1.46.17,1.46.8V15c0,1,0,1.38-.84,1.38-1.63,0-1.58-.33-5.85-.33a14.39,14.39,0,0,0-4.81.66c-2.63,1.26-3,4.94-3,10.37s.51,9.45,4.48,10.25a20.06,20.06,0,0,0,3.34.2,11.43,11.43,0,0,0,2.68-.37V27.63H9.87c-1,0-1-.46-1-1.34V25.7c0-.87,0-1.34,1-1.34h7.94c.92,0,1,.38,1,1.09V38.79c0,1-.2,1.25-1.25,1.59"/><path class="cls-4" d="M27.77,40.63H26c-1.09,0-1.3-.17-1.3-1.21V13.79c0-1,.46-1.09,1.3-1.09h1.76c.91,0,1,.38,1,1.09V39.42c0,1-.29,1.21-1,1.21"/><path class="cls-4" d="M48.06,16.3c-3.81-.05-6.73-.09-9.24-.17v8.36l8.44-.13c1,0,1.05.47,1.05,1.34v.59c0,.88,0,1.34-1.05,1.34l-8.44-.13V39.42c0,1-.25,1.21-1,1.21H36c-1.05,0-1.3-.17-1.3-1.21V13.79c0-1,.46-1.09,1.3-1.09h12c.67,0,1,.13,1,1.09V15c0,.88,0,1.34-1,1.34"/><path class="cls-4" d="M71.38,16.3c-2.67,0-4.89-.05-6.85-.09V39.42c0,1-.3,1.21-1.05,1.21H61.73c-1.09,0-1.3-.17-1.3-1.21V16.21c-2,0-4.18.09-6.86.09-1,0-1-.46-1-1.34V13.79c0-1,.37-1.09,1-1.09H71.38c.67,0,1.05.13,1.05,1.09V15c0,.88,0,1.34-1.05,1.34"/><path class="cls-4" d="M134,63.74c-1.38,2.8-5.1,2.92-7.94,2.92-2.34,0-4.64-.21-6-.33-1.09-.08-1.46-.17-1.46-.8V64.07c0-1,0-1.38.83-1.38,2.3,0,1.76.34,7.28.34,3,0,4-.3,4-3.56,0-3.09,0-3.76-1.92-4.55-1.71-.76-3.47-1.51-5.18-2.3-4.1-1.88-4.77-2.55-4.77-7.44,0-2,0-4.18,1.59-5.61s4.1-1.5,7.57-1.5c1.88,0,2.88.08,4.68.21,1,.08,1.46.16,1.46.79v1.46c0,1,0,1.38-.83,1.38-1.64,0-1.22-.2-4.52-.2-.75,0-2.22-.05-3-.05-3,0-3,1.26-3,3.93,0,2,.13,2.43,1.88,3.26,1.13.51,2.3,1,3.43,1.51,5.35,2.38,6.56,3,6.56,7.61,0,1.59,0,4.35-.71,5.77"/><path class="cls-4" d="M153.79,66.29H152c-.67,0-.92-.51-.92-1.13v-.67A9.73,9.73,0,0,1,144.72,67c-4.64,0-5.69-2.89-5.69-5.4V48.06c0-1,.21-1.21.92-1.21h1.51c1.29,0,1.42.08,1.42,1.21V59.3c0,2.14.08,3.43.42,3.85s.79.63,1.88.63c2.26,0,3.72-1.09,5.85-2.8V48.06c0-1,.21-1.21.92-1.21h1.51c1.29,0,1.42.08,1.42,1.21v17.1c0,1-.21,1.13-1.09,1.13"/><path class="cls-4" d="M170.11,50.15a9.56,9.56,0,0,0-6.36,1.8V65.07c0,1-.21,1.22-.92,1.22h-1.59c-1.29,0-1.46-.09-1.46-1.22V48c0-1,.21-1.13,1.09-1.13h2c.67,0,.92.5.92,1.13v.87a10.92,10.92,0,0,1,6.06-2.25c.72,0,1.09.29,1.09.79v1.46c0,1-.17,1.3-.79,1.3"/><path class="cls-4" d="M185.06,49.52c-1.33-.08-2.3-.12-4-.12-2.17,0-3.09.41-3.68,1.71a14.88,14.88,0,0,0-.88,5.56,29,29,0,0,0,.25,3.51c.34,2.68,1.13,3.52,3.31,3.52a16.38,16.38,0,0,0,5-1Zm3.1,22.54c-1.21,1.88-3.64,2.88-7,2.88a33.79,33.79,0,0,1-7.56-.84c-.59-.16-.71-.33-.71-1a10.21,10.21,0,0,1,.12-1.55c.13-.66.17-1,.5-1a33.87,33.87,0,0,0,8,1.13c2.46,0,3.34-.59,3.51-2.26a31.07,31.07,0,0,0,.12-3.34,25.2,25.2,0,0,1-5.56.71c-4.93,0-6.94-3-6.94-9.87,0-3.8.71-6.6,2.09-8.23,1.59-1.93,3.22-2.47,7.65-2.47,1.84,0,3.35,0,5.61.17.92.08,1,.25,1,1.21V68.38c0,2.05-.13,2.71-.75,3.68"/></g></g></svg>