<?xml version="1.0" encoding="UTF-8" standalone="no"?>
<svg
   xmlns:dc="http://purl.org/dc/elements/1.1/"
   xmlns:cc="http://creativecommons.org/ns#"
   xmlns:rdf="http://www.w3.org/1999/02/22-rdf-syntax-ns#"
   xmlns:svg="http://www.w3.org/2000/svg"
   xmlns="http://www.w3.org/2000/svg"
   xmlns:sodipodi="http://sodipodi.sourceforge.net/DTD/sodipodi-0.dtd"
   xmlns:inkscape="http://www.inkscape.org/namespaces/inkscape"
   width="1200"
   height="400"
   viewBox="0 0 317.496 105.832"
   version="1.1"
   id="svg8"
   inkscape:version="1.0.2 (1.0.2+r75+1)"
   sodipodi:docname="drawing-v01.svg">
  <defs
     id="defs2">
    <clipPath
       clipPathUnits="userSpaceOnUse"
       id="clipPath830">
      <rect
         style="opacity:1;fill:#c7c7c7;fill-opacity:1;stroke:none;stroke-width:2.64582992;stroke-miterlimit:4;stroke-dasharray:none;stroke-opacity:0.84899298"
         id="rect832"
         width="93.544327"
         height="68.287361"
         x="-273.01584"
         y="-132.76939" />
    </clipPath>
    <clipPath
       clipPathUnits="userSpaceOnUse"
       id="clipPath1223">
      <path
         style="fill:none;stroke:#ffffff;stroke-width:0.26458299px;stroke-linecap:butt;stroke-linejoin:miter;stroke-opacity:1"
         d="m -234.95613,-123.81726 -31.47242,44.06966 c 16.50406,14.921521 59.89814,19.831976 85.47214,-0.06731 l -32.85668,-43.54173 c -7.44619,5.24438 -17.4733,3.93775 -21.14304,-0.46062 z"
         id="path1225"
         inkscape:connector-curvature="0"
         sodipodi:nodetypes="ccccc" />
    </clipPath>
    <clipPath
       clipPathUnits="userSpaceOnUse"
       id="clipPath3865">
      <path
         style="fill:none;stroke:#000000;stroke-width:0.80000001px;stroke-linecap:butt;stroke-linejoin:miter;stroke-opacity:1"
         d="m 319.43282,70.985077 15.30412,-3.90744 8.46611,-14.652881 38.0975,1.628096 0.32561,5.861152 -6.18677,4.233056 2.93057,1.953721 12.37356,2.930576 11.07106,9.768592 2.27934,11.39668 -4.8843,10.094211 -13.67602,4.55867 c 0,0 -16.28098,0 -18.88594,-0.97686 -2.60495,-0.97685 -5.53553,-10.419821 -5.53553,-10.419821 l -11.39669,-1.628104 -8.46611,11.071075 -13.02478,0.32561 -8.14049,-0.97685 -7.16363,-12.047931 0.65124,-14.00164 z"
         id="path3867"
         inkscape:connector-curvature="0" />
    </clipPath>
    <clipPath
       clipPathUnits="userSpaceOnUse"
       id="clipPath3089">
      <path
         style="fill:none;stroke:#000000;stroke-width:0.80000001px;stroke-linecap:butt;stroke-linejoin:miter;stroke-opacity:1"
         d="m 287.5221,238.35351 -0.65124,22.30496 1.6281,1.62808 h 1.6281 l -2.60496,8.30336 -0.81405,7.3264 -0.65124,2.93056 1.13967,11.23392 -3.90744,3.41896 -0.32561,1.79096 -2.44215,0.4884 -4.07024,3.58184 -3.2562,5.20992 -2.11652,6.5124 -1.46529,6.5124 -0.32563,8.46608 0.48844,6.5124 1.30248,5.20992 1.95371,3.41896 2.44215,2.11656 5.20991,0.814 3.09339,0.16288 2.60496,-2.27936 1.95371,-2.76776 0.65124,-1.46528 2.27933,3.74464 2.76777,2.11648 4.8843,2.76776 3.90743,1.79096 0.48843,3.09336 0.97686,7.3264 2.27933,0.81408 0.16282,2.93056 2.27934,2.27936 2.76776,0.97688 2.76776,0.1628 4.23306,-1.30248 1.79091,-2.11656 0.97686,-1.30248 1.95372,-1.13968 0.81405,-0.9768 -0.48844,-3.90744 0.97687,-1.79096 0.65123,-1.46528 2.93058,-0.814 10.25702,-1.95376 4.88429,-1.95368 6.51239,-2.60496 4.8843,-3.41904 0.65124,-4.55864 1.46528,-6.6752 1.46529,-2.27936 h 1.79091 l 0.32562,3.58184 0.97686,1.30248 v 9.11736 l 1.95372,7.652 0.65124,3.58184 4.23305,0.6512 2.44215,-0.814 0.48843,-6.024 v -13.1876 l -0.81405,-19.21152 -0.81406,-11.72232 -0.48842,-5.37272 -5.86115,-0.3256 -1.13967,1.95368 -0.48844,5.20992 -0.48842,3.74464 -0.48843,0.1628 0.32562,11.72232 -0.81405,0.6512 -1.79091,-0.1628 -0.32561,-5.53552 -0.97687,-1.13968 0.32563,-6.18672 -3.0934,-2.76776 -3.09338,-0.32568 0.32562,-2.27928 1.30248,-0.97688 3.90744,-17.25784 -4.72149,-2.76776 -2.27934,-0.48848 -1.95372,-3.74456 -2.11652,-1.13968 -0.48843,-9.76864 -2.76777,0.16288 -0.48843,-1.95376 -1.30247,-3.58184 -1.95372,0.48848 -0.81405,-3.74464 0.48842,-3.58184 -0.48842,-1.95368 11.07106,-11.55952 7.16364,-9.60576 8.30329,-4.23304 4.23306,-10.25704 -0.48843,-12.6992 -3.74463,-12.53632 -10.58263,-10.74544 -11.5595,-7.32645 -10.90825,-4.55867 -9.44297,2.60496 -6.34958,0.65124 -10.58264,-0.65124 -12.04792,-2.27934 h -14.8157 l -5.53553,4.55868 -3.90744,4.23305 -0.32561,6.18681 -4.23306,3.58176 -4.39586,4.07024 -0.81405,6.6752 1.62809,6.3496 0.81405,6.024 4.55868,10.58264 8.79173,1.46528 1.46529,4.55864 -1.62811,6.1868 13.67603,3.74464 z"
         id="path3091"
         inkscape:connector-curvature="0" />
    </clipPath>
    <clipPath
       clipPathUnits="userSpaceOnUse"
       id="clipPath40">
      <rect
         style="opacity:1;fill:#ffffff;stroke-width:0.26458001"
         id="rect42"
         width="176.03831"
         height="83.15873"
         x="-234.80116"
         y="357.05145" />
    </clipPath>
    <clipPath
       clipPathUnits="userSpaceOnUse"
       id="clipPath44">
      <rect
         y="446.42728"
         x="145.57394"
         height="37.760849"
         width="54.642017"
         id="rect46"
         style="opacity:1;fill:#ffffff;stroke-width:0.09933074" />
    </clipPath>
    <clipPath
       clipPathUnits="userSpaceOnUse"
       id="clipPath41">
      <rect
         style="opacity:1;fill:#ffffff;stroke-width:0.26458001"
         id="rect43"
         width="235.37619"
         height="249.30966"
         x="349.33206"
         y="106.4077" />
    </clipPath>
  </defs>
  <sodipodi:namedview
     id="base"
     pagecolor="#ffffff"
     bordercolor="#666666"
     borderopacity="1.0"
     inkscape:pageopacity="0.0"
     inkscape:pageshadow="2"
     inkscape:zoom="0.5316865"
     inkscape:cx="441.50382"
     inkscape:cy="331.07424"
     inkscape:document-units="px"
     inkscape:current-layer="layer1"
     showgrid="false"
     inkscape:window-width="1853"
     inkscape:window-height="1025"
     inkscape:window-x="0"
     inkscape:window-y="27"
     inkscape:window-maximized="1"
     showguides="true"
     units="px"
     inkscape:showpageshadow="true"
     borderlayer="true"
     inkscape:lockguides="false"
     inkscape:document-rotation="0" />
  <metadata
     id="metadata5">
    <rdf:RDF>
      <cc:Work
         rdf:about="">
        <dc:format>image/svg+xml</dc:format>
        <dc:type
           rdf:resource="http://purl.org/dc/dcmitype/StillImage" />
        <dc:title />
      </cc:Work>
    </rdf:RDF>
  </metadata>
  <g
     inkscape:label="Layer 1"
     inkscape:groupmode="layer"
     id="layer1"
     transform="translate(0,-191.16572)">
    <rect
       style="opacity:1;fill:#ffffff;fill-opacity:1;stroke:#000eff;stroke-width:4.69056;stroke-linejoin:miter;stroke-miterlimit:4;stroke-dasharray:none;stroke-dashoffset:0;stroke-opacity:1;paint-order:markers stroke fill"
       id="rect113"
       width="357.74414"
       height="166.73076"
       x="-16.548679"
       y="165.45908" />
    <text
       xml:space="preserve"
       style="font-style:normal;font-variant:normal;font-weight:normal;font-stretch:normal;font-size:7.11205px;line-height:1.25;font-family:Ubuntu;-inkscape-font-specification:Ubuntu;letter-spacing:0px;word-spacing:0px;fill:#000000;fill-opacity:1;stroke:none;stroke-width:0.0370419"
       x="-15.979513"
       y="138.92888"
       id="text51"><tspan
         sodipodi:role="line"
         x="-15.979513"
         y="138.92888"
         style="font-style:normal;font-variant:normal;font-weight:normal;font-stretch:normal;font-size:50.8px;font-family:Ubuntu;-inkscape-font-specification:Ubuntu;stroke-width:0.0370419"
         id="tspan838">v01</tspan></text>
    <text
       id="text55"
       y="175.73384"
       x="-350.09747"
       style="font-style:normal;font-variant:normal;font-weight:normal;font-stretch:normal;font-size:50.8px;line-height:1.25;font-family:Ubuntu;-inkscape-font-specification:Ubuntu;letter-spacing:0px;word-spacing:0px;fill:#000000;fill-opacity:1;stroke:none;stroke-width:0.264583"
       xml:space="preserve" />
    <text
       xml:space="preserve"
       style="font-style:normal;font-weight:normal;font-size:10.5832px;line-height:1.25;font-family:sans-serif;text-align:center;text-anchor:middle;fill:#000000;fill-opacity:1;stroke:none;stroke-width:0.26458"
       x="36.413418"
       y="260.93542"
       id="text35"><tspan
         sodipodi:role="line"
         id="tspan33"
         x="36.413418"
         y="260.93542"
         style="font-style:normal;font-variant:normal;font-weight:normal;font-stretch:normal;font-family:Ubuntu;-inkscape-font-specification:Ubuntu;text-align:center;text-anchor:middle;stroke-width:0.26458">Shu </tspan><tspan
         sodipodi:role="line"
         x="36.413418"
         y="274.66953"
         style="font-style:normal;font-variant:normal;font-weight:normal;font-stretch:normal;font-family:Ubuntu;-inkscape-font-specification:Ubuntu;text-align:center;text-anchor:middle;stroke-width:0.26458"
         id="tspan64">Wang</tspan></text>
    <ellipse
       style="opacity:0.658783;fill:#0000ff;fill-opacity:0.594926;stroke:#ffff00;stroke-width:0.141933;stroke-linejoin:round"
       id="path39"
       cx="284.76047"
       cy="229.09828"
       rx="19.860622"
       ry="19.429743" />
    <text
       xml:space="preserve"
       style="font-style:normal;font-weight:normal;font-size:10.5832px;line-height:1.25;font-family:sans-serif;text-align:center;text-anchor:middle;fill:#000000;fill-opacity:1;stroke:none;stroke-width:0.26458"
       x="290.77963"
       y="267.38007"
       id="text43"><tspan
         sodipodi:role="line"
         id="tspan41"
         x="290.77963"
         y="267.38007"
         style="font-style:normal;font-variant:normal;font-weight:normal;font-stretch:normal;font-family:Ubuntu;-inkscape-font-specification:Ubuntu;text-align:center;text-anchor:middle;stroke-width:0.26458">Name </tspan><tspan
         sodipodi:role="line"
         x="290.77963"
         y="281.11417"
         style="font-style:normal;font-variant:normal;font-weight:normal;font-stretch:normal;font-family:Ubuntu;-inkscape-font-specification:Ubuntu;text-align:center;text-anchor:middle;stroke-width:0.26458"
         id="tspan46">Surname</tspan></text>
    <ellipse
       style="opacity:0.658783;fill:#0000ff;fill-opacity:0.594926;stroke:#ffff00;stroke-width:0.142226;stroke-linejoin:round"
       id="circle45"
       cx="35.974545"
       cy="224.66292"
       rx="19.43119"
       ry="19.941214" />
    <text
       xml:space="preserve"
       style="font-style:normal;font-weight:normal;font-size:10.5832px;line-height:1.25;font-family:sans-serif;text-align:center;text-anchor:middle;fill:#000000;fill-opacity:1;stroke:none;stroke-width:0.26458"
       x="96.249413"
       y="258.08197"
       id="text49"><tspan
         sodipodi:role="line"
         id="tspan47"
         x="96.249413"
         y="258.08197"
         style="font-style:normal;font-variant:normal;font-weight:normal;font-stretch:normal;font-family:Ubuntu;-inkscape-font-specification:Ubuntu;text-align:center;text-anchor:middle;stroke-width:0.26458">Ou </tspan><tspan
         sodipodi:role="line"
         x="96.249413"
         y="271.8161"
         style="font-style:normal;font-variant:normal;font-weight:normal;font-stretch:normal;font-family:Ubuntu;-inkscape-font-specification:Ubuntu;text-align:center;text-anchor:middle;stroke-width:0.26458"
         id="tspan62">Zhanchong</tspan></text>
    <ellipse
       style="opacity:0.658783;fill:#0000ff;fill-opacity:0.594926;stroke:#ffff00;stroke-width:0.142226;stroke-linejoin:round"
       id="ellipse51"
       cx="94.819786"
       cy="225.20914"
       rx="19.43119"
       ry="19.941214" />
    <text
       xml:space="preserve"
       style="font-style:normal;font-weight:normal;font-size:10.5832px;line-height:1.25;font-family:sans-serif;text-align:center;text-anchor:middle;fill:#000000;fill-opacity:1;stroke:none;stroke-width:0.26458"
       x="214.83377"
       y="259.15924"
       id="text56"><tspan
         sodipodi:role="line"
         id="tspan53"
         x="214.83377"
         y="259.15924"
         style="font-style:normal;font-variant:normal;font-weight:normal;font-stretch:normal;font-family:Ubuntu;-inkscape-font-specification:Ubuntu;text-align:center;text-anchor:middle;stroke-width:0.26458">Miguel</tspan><tspan
         sodipodi:role="line"
         x="214.83377"
         y="272.89334"
         style="font-style:normal;font-variant:normal;font-weight:normal;font-stretch:normal;font-family:Ubuntu;-inkscape-font-specification:Ubuntu;text-align:center;text-anchor:middle;stroke-width:0.26458"
         id="tspan60">Xochicale</tspan></text>
    <ellipse
       style="opacity:0.658783;fill:#0000ff;fill-opacity:0.594926;stroke:#ffff00;stroke-width:0.142226;stroke-linejoin:round"
       id="ellipse58"
       cx="213.85162"
       cy="226.28639"
       rx="19.43119"
       ry="19.941214" />
    <ellipse
       style="opacity:0.658783;fill:#0000ff;fill-opacity:0.594926;stroke:#ffff00;stroke-width:0.141933;stroke-linejoin:round"
       id="ellipse40"
       cx="157.29802"
       cy="230.41418"
       rx="19.860622"
       ry="19.429743" />
    <text
       xml:space="preserve"
       style="font-style:normal;font-weight:normal;font-size:10.5832px;line-height:1.25;font-family:sans-serif;fill:#000000;fill-opacity:1;stroke:none;stroke-width:0.26458"
       x="131.44038"
       y="269.52365"
       id="text44"><tspan
         sodipodi:role="line"
         id="tspan42"
         x="131.44038"
         y="269.52365"
         style="font-style:normal;font-variant:normal;font-weight:normal;font-stretch:normal;font-family:Ubuntu;-inkscape-font-specification:Ubuntu;stroke-width:0.26458">Fang-Yu Lin</tspan></text>
  </g>
</svg>
